# xmcd CD database file
#
# Track frame offsets:
#	150
#	20097
#	38653
#	63354
#	85275
#	106451
#	128800
#	151649
#
# Disc length: 2248 seconds
#
# Revision: 0
# Processed by: cddbd v1.5.1PL0 Copyright (c) Steve Scherf et al.
# Submitted via: CDex 1.51
#
DISCID=5c08c608
DTITLE=Puerto Rican Power - Solo Con Un Beso
DYEAR=1991
DGENRE=Salsa
TTITLE0=Amar No Se Puede Apurar
TTITLE1=No Puedo Precindir de Ti
TTITLE2=Con Ella
TTITLE3=Solo Con Un Beso
TTITLE4=Pesar de Ti
TTITLE5=Voy a Ti, Voy a Mí
TTITLE6=Amame
TTITLE7=Hoy Te Quiero Cantar
EXTD=YEAR: 1991
EXTT0=
EXTT1=
EXTT2=
EXTT3=
EXTT4=
EXTT5=
EXTT6=
EXTT7=
PLAYORDER=
